<svg width="24" height="24" viewBox="0 0 24 24" fill="none" xmlns="http://www.w3.org/2000/svg">
<path d="M11 20H6.5C4.98 20 3.68333 19.4767 2.61 18.43C1.53667 17.3767 1 16.0933 1 14.58C1 13.28 1.39 12.12 2.17 11.1C2.95667 10.08 3.98333 9.43 5.25 9.15C5.67 7.61667 6.50333 6.37667 7.75 5.43C9.00333 4.47667 10.42 4 12 4C13.9533 4 15.6067 4.68 16.96 6.04C18.32 7.39333 19 9.04667 19 11C20.1533 11.1333 21.1067 11.6333 21.86 12.5C22.62 13.3533 23 14.3533 23 15.5C23 16.7533 22.5633 17.8167 21.69 18.69C20.8167 19.5633 19.7533 20 18.5 20H13V12.85L14.6 14.4L16 13L12 9L8 13L9.4 14.4L11 12.85V20Z" fill="#858882"/>
</svg>
