<svg width="20" height="21" viewBox="0 0 20 21" fill="none" xmlns="http://www.w3.org/2000/svg">
<path d="M4.03523 8.8862C4.03523 6.6571 5.84228 4.85005 8.07138 4.85005C10.3005 4.85005 12.1075 6.6571 12.1075 8.8862C12.1075 11.1153 10.3005 12.9223 8.07138 12.9223C5.84228 12.9223 4.03523 11.1153 4.03523 8.8862ZM8.07138 3.2356C4.95064 3.2356 2.42078 5.76546 2.42078 8.8862C2.42078 12.0069 4.95064 14.5368 8.07138 14.5368C9.34058 14.5368 10.5121 14.1183 11.4554 13.4118L15.5729 17.5293C15.8881 17.8445 16.3992 17.8445 16.7145 17.5293C17.0297 17.2141 17.0297 16.7029 16.7145 16.3877L12.597 12.2703C13.3035 11.3269 13.722 10.1554 13.722 8.8862C13.722 5.76546 11.1921 3.2356 8.07138 3.2356Z" fill="#EDEDED"/>
</svg>
